<?xml version="1.0" encoding="UTF-8" standalone="no"?>
<!DOCTYPE score-partwise PUBLIC "-//Recordare//DTD MusicXML 3.1 Partwise//EN" "http://www.musicxml.org/dtds/partwise.dtd">
<score-partwise version="3.1">
  <movement-title>snippet 1</movement-title>
  <identification>
    <creator type="composer"></creator>
    <encoding>
      <software>ScoreCloud Studio 4.5.1 (App Store)</software>
    </encoding>
  </identification>
  <part-list>
    <score-part id="P0">
      <part-name></part-name>
    </score-part>
  </part-list>
  <!--=========================================================-->
  <part id="P0">
    <!--=======================================================-->
    <measure number="1">
      <attributes>
        <divisions>1024</divisions>
        <key>
          <fifths>3</fifths>
        </key>
        <time>
          <beats>4</beats>
          <beat-type>4</beat-type>
        </time>
        <staves>1</staves>
        <clef number="1">
          <sign>G</sign>
          <line>2</line>
        </clef>
      </attributes>
      <direction directive="yes" placement="above">
        <direction-type>
          <metronome>
            <beat-unit>quarter</beat-unit>
            <per-minute>98</per-minute>
          </metronome>
        </direction-type>
        <sound tempo="98"/>
      </direction>
      <note dynamics="82">
        <pitch>
          <step>F</step>
          <alter>1</alter>
          <octave>4</octave>
        </pitch>
        <duration>1024</duration>
        <voice>1</voice>
        <type>quarter</type>
        <staff>1</staff>
      </note>
      <note>
        <grace slash="yes"/>
        <pitch>
          <step>G</step>
          <alter>1</alter>
          <octave>4</octave>
        </pitch>
        <voice>1</voice>
        <type>eighth</type>
        <staff>1</staff>
        <notations>
          <slur type="start"/>
        </notations>
      </note>
      <note dynamics="90">
        <pitch>
          <step>E</step>
          <octave>5</octave>
        </pitch>
        <duration>1024</duration>
        <tie type="start"/>
        <voice>1</voice>
        <type>quarter</type>
        <staff>1</staff>
        <notations>
          <tied type="start"/>
          <slur type="stop"/>
        </notations>
      </note>
      <note dynamics="90">
        <pitch>
          <step>E</step>
          <octave>5</octave>
        </pitch>
        <duration>512</duration>
        <tie type="stop"/>
        <voice>1</voice>
        <type>eighth</type>
        <staff>1</staff>
        <beam number="1">begin</beam>
        <notations>
          <tied type="stop"/>
        </notations>
      </note>
      <note dynamics="92">
        <pitch>
          <step>C</step>
          <alter>1</alter>
          <octave>5</octave>
        </pitch>
        <duration>512</duration>
        <voice>1</voice>
        <type>eighth</type>
        <staff>1</staff>
        <beam number="1">end</beam>
      </note>
      <note dynamics="87">
        <pitch>
          <step>E</step>
          <octave>5</octave>
        </pitch>
        <duration>512</duration>
        <voice>1</voice>
        <type>eighth</type>
        <staff>1</staff>
        <beam number="1">begin</beam>
      </note>
      <note dynamics="89">
        <pitch>
          <step>F</step>
          <alter>1</alter>
          <octave>5</octave>
        </pitch>
        <duration>512</duration>
        <voice>1</voice>
        <type>eighth</type>
        <staff>1</staff>
        <beam number="1">end</beam>
      </note>
    </measure>
    <!--=======================================================-->
    <measure number="2">
      <note dynamics="92">
        <pitch>
          <step>C</step>
          <alter>1</alter>
          <octave>5</octave>
        </pitch>
        <duration>512</duration>
        <tie type="start"/>
        <voice>1</voice>
        <type>eighth</type>
        <staff>1</staff>
        <beam number="1">begin</beam>
        <notations>
          <tied type="start"/>
        </notations>
      </note>
      <note dynamics="92">
        <pitch>
          <step>C</step>
          <alter>1</alter>
          <octave>5</octave>
        </pitch>
        <duration>171</duration>
        <tie type="stop"/>
        <voice>1</voice>
        <type>16th</type>
        <time-modification>
          <actual-notes>3</actual-notes>
          <normal-notes>2</normal-notes>
          <normal-type>16th</normal-type>
        </time-modification>
        <staff>1</staff>
        <beam number="2">continue</beam>
        <notations>
          <tied type="stop"/>
          <tuplet type="start">
            <tuplet-actual>
              <tuplet-number>3</tuplet-number>
              <tuplet-type>16th</tuplet-type>
            </tuplet-actual>
            <tuplet-normal>
              <tuplet-number>2</tuplet-number>
              <tuplet-type>16th</tuplet-type>
            </tuplet-normal>
          </tuplet>
        </notations>
      </note>
      <note dynamics="85">
        <pitch>
          <step>C</step>
          <alter>1</alter>
          <octave>5</octave>
        </pitch>
        <duration>341</duration>
        <voice>1</voice>
        <type>eighth</type>
        <time-modification>
          <actual-notes>3</actual-notes>
          <normal-notes>2</normal-notes>
          <normal-type>16th</normal-type>
        </time-modification>
        <staff>1</staff>
        <beam number="1">end</beam>
        <notations>
          <tuplet type="stop">
            <tuplet-actual>
              <tuplet-number>3</tuplet-number>
              <tuplet-type>16th</tuplet-type>
            </tuplet-actual>
            <tuplet-normal>
              <tuplet-number>2</tuplet-number>
              <tuplet-type>16th</tuplet-type>
            </tuplet-normal>
          </tuplet>
        </notations>
      </note>
      <note dynamics="89">
        <pitch>
          <step>F</step>
          <alter>1</alter>
          <octave>5</octave>
        </pitch>
        <duration>512</duration>
        <voice>1</voice>
        <type>eighth</type>
        <staff>1</staff>
        <beam number="1">begin</beam>
      </note>
      <note dynamics="94">
        <pitch>
          <step>C</step>
          <alter>1</alter>
          <octave>5</octave>
        </pitch>
        <duration>512</duration>
        <voice>1</voice>
        <type>eighth</type>
        <staff>1</staff>
        <beam number="1">end</beam>
      </note>
      <note dynamics="82">
        <pitch>
          <step>F</step>
          <alter>1</alter>
          <octave>5</octave>
        </pitch>
        <duration>256</duration>
        <voice>1</voice>
        <type>16th</type>
        <staff>1</staff>
        <beam number="2">begin</beam>
      </note>
      <note dynamics="84">
        <pitch>
          <step>F</step>
          <alter>1</alter>
          <octave>5</octave>
        </pitch>
        <duration>256</duration>
        <voice>1</voice>
        <type>16th</type>
        <staff>1</staff>
        <beam number="2">continue</beam>
      </note>
      <note dynamics="98">
        <pitch>
          <step>C</step>
          <alter>1</alter>
          <octave>5</octave>
        </pitch>
        <duration>512</duration>
        <tie type="start"/>
        <voice>1</voice>
        <type>eighth</type>
        <staff>1</staff>
        <beam number="1">end</beam>
        <notations>
          <tied type="start"/>
        </notations>
      </note>
      <note dynamics="98">
        <pitch>
          <step>C</step>
          <alter>1</alter>
          <octave>5</octave>
        </pitch>
        <duration>512</duration>
        <tie type="stop"/>
        <voice>1</voice>
        <type>eighth</type>
        <staff>1</staff>
        <beam number="1">begin</beam>
        <notations>
          <tied type="stop"/>
        </notations>
      </note>
      <note dynamics="107">
        <pitch>
          <step>C</step>
          <alter>1</alter>
          <octave>5</octave>
        </pitch>
        <duration>512</duration>
        <voice>1</voice>
        <type>eighth</type>
        <staff>1</staff>
        <beam number="1">end</beam>
      </note>
    </measure>
    <!--=======================================================-->
    <measure number="3">
      <note dynamics="90">
        <pitch>
          <step>F</step>
          <alter>1</alter>
          <octave>4</octave>
        </pitch>
        <duration>768</duration>
        <voice>1</voice>
        <type>eighth</type>
        <dot/>
        <staff>1</staff>
        <beam number="1">begin</beam>
      </note>
      <note dynamics="90">
        <pitch>
          <step>F</step>
          <alter>1</alter>
          <octave>4</octave>
        </pitch>
        <duration>256</duration>
        <voice>1</voice>
        <type>16th</type>
        <staff>1</staff>
        <beam number="2">end</beam>
      </note>
      <note dynamics="98">
        <pitch>
          <step>F</step>
          <alter>1</alter>
          <octave>4</octave>
        </pitch>
        <duration>512</duration>
        <voice>1</voice>
        <type>eighth</type>
        <staff>1</staff>
        <beam number="1">begin</beam>
      </note>
      <note dynamics="98">
        <pitch>
          <step>F</step>
          <alter>1</alter>
          <octave>4</octave>
        </pitch>
        <duration>512</duration>
        <voice>1</voice>
        <type>eighth</type>
        <staff>1</staff>
        <beam number="1">end</beam>
      </note>
      <note dynamics="94">
        <pitch>
          <step>F</step>
          <alter>1</alter>
          <octave>4</octave>
        </pitch>
        <duration>512</duration>
        <voice>1</voice>
        <type>eighth</type>
        <staff>1</staff>
        <beam number="1">begin</beam>
      </note>
      <note dynamics="100">
        <pitch>
          <step>F</step>
          <alter>1</alter>
          <octave>4</octave>
        </pitch>
        <duration>512</duration>
        <voice>1</voice>
        <type>eighth</type>
        <staff>1</staff>
        <beam number="1">end</beam>
      </note>
      <note dynamics="103">
        <pitch>
          <step>F</step>
          <alter>1</alter>
          <octave>5</octave>
        </pitch>
        <duration>512</duration>
        <voice>1</voice>
        <type>eighth</type>
        <staff>1</staff>
        <beam number="1">begin</beam>
      </note>
      <note dynamics="108">
        <pitch>
          <step>C</step>
          <alter>1</alter>
          <octave>5</octave>
        </pitch>
        <duration>512</duration>
        <voice>1</voice>
        <type>eighth</type>
        <staff>1</staff>
        <beam number="1">end</beam>
      </note>
    </measure>
    <!--=======================================================-->
    <measure number="4">
      <note dynamics="103">
        <pitch>
          <step>E</step>
          <octave>5</octave>
        </pitch>
        <duration>1024</duration>
        <voice>1</voice>
        <type>quarter</type>
        <staff>1</staff>
      </note>
      <note dynamics="110">
        <pitch>
          <step>F</step>
          <alter>1</alter>
          <octave>5</octave>
        </pitch>
        <duration>512</duration>
        <voice>1</voice>
        <type>eighth</type>
        <staff>1</staff>
        <beam number="1">begin</beam>
      </note>
      <note dynamics="107">
        <pitch>
          <step>C</step>
          <alter>1</alter>
          <octave>5</octave>
        </pitch>
        <duration>512</duration>
        <voice>1</voice>
        <type>eighth</type>
        <staff>1</staff>
        <beam number="1">end</beam>
      </note>
      <note dynamics="110">
        <pitch>
          <step>F</step>
          <alter>1</alter>
          <octave>5</octave>
        </pitch>
        <duration>512</duration>
        <voice>1</voice>
        <type>eighth</type>
        <staff>1</staff>
        <beam number="1">begin</beam>
      </note>
      <note dynamics="110">
        <pitch>
          <step>C</step>
          <alter>1</alter>
          <octave>5</octave>
        </pitch>
        <duration>512</duration>
        <voice>1</voice>
        <type>eighth</type>
        <staff>1</staff>
        <beam number="1">end</beam>
      </note>
      <note dynamics="107">
        <pitch>
          <step>E</step>
          <octave>5</octave>
        </pitch>
        <duration>1024</duration>
        <tie type="start"/>
        <voice>1</voice>
        <type>quarter</type>
        <staff>1</staff>
        <notations>
          <tied type="start"/>
        </notations>
      </note>
    </measure>
    <!--=======================================================-->
    <measure number="5">
      <note dynamics="107">
        <pitch>
          <step>E</step>
          <octave>5</octave>
        </pitch>
        <duration>1536</duration>
        <tie type="stop"/>
        <voice>1</voice>
        <type>quarter</type>
        <dot/>
        <staff>1</staff>
        <notations>
          <tied type="stop"/>
        </notations>
      </note>
      <note dynamics="95">
        <pitch>
          <step>F</step>
          <alter>1</alter>
          <octave>4</octave>
        </pitch>
        <duration>512</duration>
        <voice>1</voice>
        <type>eighth</type>
        <staff>1</staff>
      </note>
      <note dynamics="100">
        <pitch>
          <step>F</step>
          <alter>1</alter>
          <octave>5</octave>
        </pitch>
        <duration>512</duration>
        <voice>1</voice>
        <type>eighth</type>
        <staff>1</staff>
        <beam number="1">begin</beam>
      </note>
      <note dynamics="98">
        <pitch>
          <step>F</step>
          <alter>1</alter>
          <octave>5</octave>
        </pitch>
        <duration>512</duration>
        <voice>1</voice>
        <type>eighth</type>
        <staff>1</staff>
        <beam number="1">end</beam>
      </note>
      <note dynamics="98">
        <pitch>
          <step>F</step>
          <alter>1</alter>
          <octave>5</octave>
        </pitch>
        <duration>512</duration>
        <voice>1</voice>
        <type>eighth</type>
        <staff>1</staff>
        <beam number="1">begin</beam>
      </note>
      <note dynamics="102">
        <pitch>
          <step>E</step>
          <alter>1</alter>
          <octave>5</octave>
        </pitch>
        <duration>512</duration>
        <voice>1</voice>
        <type>eighth</type>
        <accidental>sharp</accidental>
        <staff>1</staff>
        <beam number="1">end</beam>
      </note>
    </measure>
    <!--=======================================================-->
    <measure number="6">
      <note dynamics="110">
        <pitch>
          <step>C</step>
          <alter>1</alter>
          <octave>5</octave>
        </pitch>
        <duration>512</duration>
        <voice>1</voice>
        <type>eighth</type>
        <staff>1</staff>
      </note>
      <note dynamics="103">
        <pitch>
          <step>E</step>
          <octave>5</octave>
        </pitch>
        <duration>1024</duration>
        <voice>1</voice>
        <type>quarter</type>
        <staff>1</staff>
      </note>
      <note dynamics="100">
        <pitch>
          <step>F</step>
          <alter>1</alter>
          <octave>5</octave>
        </pitch>
        <duration>512</duration>
        <voice>1</voice>
        <type>eighth</type>
        <staff>1</staff>
      </note>
      <note dynamics="108">
        <pitch>
          <step>C</step>
          <alter>1</alter>
          <octave>5</octave>
        </pitch>
        <duration>512</duration>
        <voice>1</voice>
        <type>eighth</type>
        <staff>1</staff>
        <beam number="1">begin</beam>
      </note>
      <note dynamics="103">
        <pitch>
          <step>F</step>
          <alter>1</alter>
          <octave>5</octave>
        </pitch>
        <duration>512</duration>
        <voice>1</voice>
        <type>eighth</type>
        <staff>1</staff>
        <beam number="1">end</beam>
      </note>
      <note dynamics="110">
        <pitch>
          <step>C</step>
          <alter>1</alter>
          <octave>5</octave>
        </pitch>
        <duration>512</duration>
        <voice>1</voice>
        <type>eighth</type>
        <staff>1</staff>
        <beam number="1">begin</beam>
      </note>
      <note dynamics="98">
        <pitch>
          <step>A</step>
          <octave>4</octave>
        </pitch>
        <duration>512</duration>
        <tie type="start"/>
        <voice>1</voice>
        <type>eighth</type>
        <staff>1</staff>
        <beam number="1">end</beam>
        <notations>
          <tied type="start"/>
        </notations>
      </note>
    </measure>
    <!--=======================================================-->
    <measure number="7">
      <note dynamics="98">
        <pitch>
          <step>A</step>
          <octave>4</octave>
        </pitch>
        <duration>512</duration>
        <tie type="stop"/>
        <voice>1</voice>
        <type>eighth</type>
        <staff>1</staff>
        <notations>
          <tied type="stop"/>
        </notations>
      </note>
      <note dynamics="110">
        <pitch>
          <step>C</step>
          <alter>1</alter>
          <octave>5</octave>
        </pitch>
        <duration>1024</duration>
        <voice>1</voice>
        <type>quarter</type>
        <staff>1</staff>
      </note>
      <note dynamics="102">
        <pitch>
          <step>F</step>
          <alter>1</alter>
          <octave>4</octave>
        </pitch>
        <duration>512</duration>
        <tie type="start"/>
        <voice>1</voice>
        <type>eighth</type>
        <staff>1</staff>
        <notations>
          <tied type="start"/>
        </notations>
      </note>
      <note dynamics="102">
        <pitch>
          <step>F</step>
          <alter>1</alter>
          <octave>4</octave>
        </pitch>
        <duration>2048</duration>
        <tie type="stop"/>
        <tie type="start"/>
        <voice>1</voice>
        <type>half</type>
        <staff>1</staff>
        <notations>
          <tied type="stop"/>
          <tied type="start"/>
        </notations>
      </note>
    </measure>
    <!--=======================================================-->
    <measure number="8">
      <note dynamics="102">
        <pitch>
          <step>F</step>
          <alter>1</alter>
          <octave>4</octave>
        </pitch>
        <duration>1024</duration>
        <tie type="stop"/>
        <voice>1</voice>
        <type>quarter</type>
        <staff>1</staff>
        <notations>
          <tied type="stop"/>
        </notations>
      </note>
      <note dynamics="97">
        <pitch>
          <step>F</step>
          <alter>1</alter>
          <octave>4</octave>
        </pitch>
        <duration>512</duration>
        <voice>1</voice>
        <type>eighth</type>
        <staff>1</staff>
        <beam number="1">begin</beam>
      </note>
      <note dynamics="95">
        <pitch>
          <step>F</step>
          <alter>1</alter>
          <octave>4</octave>
        </pitch>
        <duration>512</duration>
        <tie type="start"/>
        <voice>1</voice>
        <type>eighth</type>
        <staff>1</staff>
        <beam number="1">end</beam>
        <notations>
          <tied type="start"/>
        </notations>
      </note>
      <note dynamics="95">
        <pitch>
          <step>F</step>
          <alter>1</alter>
          <octave>4</octave>
        </pitch>
        <duration>1024</duration>
        <tie type="stop"/>
        <voice>1</voice>
        <type>quarter</type>
        <staff>1</staff>
        <notations>
          <tied type="stop"/>
        </notations>
      </note>
      <note dynamics="98">
        <pitch>
          <step>F</step>
          <alter>1</alter>
          <octave>4</octave>
        </pitch>
        <duration>512</duration>
        <voice>1</voice>
        <type>eighth</type>
        <staff>1</staff>
        <beam number="1">begin</beam>
      </note>
      <note dynamics="110">
        <pitch>
          <step>C</step>
          <alter>1</alter>
          <octave>5</octave>
        </pitch>
        <duration>512</duration>
        <tie type="start"/>
        <voice>1</voice>
        <type>eighth</type>
        <staff>1</staff>
        <beam number="1">end</beam>
        <notations>
          <tied type="start"/>
        </notations>
      </note>
    </measure>
    <!--=======================================================-->
    <measure number="9">
      <note dynamics="110">
        <pitch>
          <step>C</step>
          <alter>1</alter>
          <octave>5</octave>
        </pitch>
        <duration>256</duration>
        <tie type="stop"/>
        <voice>1</voice>
        <type>16th</type>
        <staff>1</staff>
        <beam number="2">begin</beam>
        <notations>
          <tied type="stop"/>
        </notations>
      </note>
      <note dynamics="95">
        <pitch>
          <step>B</step>
          <octave>4</octave>
        </pitch>
        <duration>256</duration>
        <voice>1</voice>
        <type>16th</type>
        <staff>1</staff>
        <beam number="2">continue</beam>
      </note>
      <note dynamics="94">
        <pitch>
          <step>B</step>
          <octave>4</octave>
        </pitch>
        <duration>512</duration>
        <voice>1</voice>
        <type>eighth</type>
        <staff>1</staff>
        <beam number="1">end</beam>
      </note>
      <note dynamics="92">
        <pitch>
          <step>B</step>
          <octave>4</octave>
        </pitch>
        <duration>512</duration>
        <voice>1</voice>
        <type>eighth</type>
        <staff>1</staff>
        <beam number="1">begin</beam>
      </note>
      <note dynamics="95">
        <pitch>
          <step>A</step>
          <octave>4</octave>
        </pitch>
        <duration>512</duration>
        <voice>1</voice>
        <type>eighth</type>
        <staff>1</staff>
        <beam number="1">end</beam>
      </note>
      <note dynamics="90">
        <pitch>
          <step>B</step>
          <octave>4</octave>
        </pitch>
        <duration>1536</duration>
        <voice>1</voice>
        <type>quarter</type>
        <dot/>
        <staff>1</staff>
      </note>
      <note dynamics="102">
        <pitch>
          <step>D</step>
          <octave>5</octave>
        </pitch>
        <duration>512</duration>
        <tie type="start"/>
        <voice>1</voice>
        <type>eighth</type>
        <staff>1</staff>
        <notations>
          <tied type="start"/>
        </notations>
      </note>
    </measure>
    <!--=======================================================-->
    <measure number="10">
      <note dynamics="102">
        <pitch>
          <step>D</step>
          <octave>5</octave>
        </pitch>
        <duration>512</duration>
        <tie type="stop"/>
        <voice>1</voice>
        <type>eighth</type>
        <staff>1</staff>
        <beam number="1">begin</beam>
        <notations>
          <tied type="stop"/>
        </notations>
      </note>
      <note dynamics="107">
        <pitch>
          <step>F</step>
          <alter>1</alter>
          <octave>5</octave>
        </pitch>
        <duration>256</duration>
        <voice>1</voice>
        <type>16th</type>
        <staff>1</staff>
        <beam number="2">continue</beam>
      </note>
      <note dynamics="97">
        <pitch>
          <step>E</step>
          <octave>5</octave>
        </pitch>
        <duration>256</duration>
        <tie type="start"/>
        <voice>1</voice>
        <type>16th</type>
        <staff>1</staff>
        <beam number="2">end</beam>
        <notations>
          <tied type="start"/>
        </notations>
      </note>
      <note dynamics="97">
        <pitch>
          <step>E</step>
          <octave>5</octave>
        </pitch>
        <duration>512</duration>
        <tie type="stop"/>
        <voice>1</voice>
        <type>eighth</type>
        <staff>1</staff>
        <beam number="1">begin</beam>
        <notations>
          <tied type="stop"/>
        </notations>
      </note>
      <note dynamics="110">
        <pitch>
          <step>C</step>
          <alter>1</alter>
          <octave>5</octave>
        </pitch>
        <duration>512</duration>
        <voice>1</voice>
        <type>eighth</type>
        <staff>1</staff>
        <beam number="1">end</beam>
      </note>
      <note dynamics="98">
        <pitch>
          <step>D</step>
          <alter>1</alter>
          <octave>5</octave>
        </pitch>
        <duration>512</duration>
        <voice>1</voice>
        <type>eighth</type>
        <accidental>sharp</accidental>
        <staff>1</staff>
      </note>
      <note dynamics="100">
        <pitch>
          <step>D</step>
          <alter>1</alter>
          <octave>5</octave>
        </pitch>
        <duration>1536</duration>
        <tie type="start"/>
        <voice>1</voice>
        <type>quarter</type>
        <dot/>
        <staff>1</staff>
        <notations>
          <tied type="start"/>
        </notations>
      </note>
    </measure>
    <!--=======================================================-->
    <measure number="11">
      <note dynamics="100">
        <pitch>
          <step>D</step>
          <alter>1</alter>
          <octave>5</octave>
        </pitch>
        <duration>3584</duration>
        <tie type="stop"/>
        <voice>1</voice>
        <type>half</type>
        <dot/>
        <dot/>
        <staff>1</staff>
        <notations>
          <tied type="stop"/>
        </notations>
      </note>
      <note dynamics="105">
        <pitch>
          <step>F</step>
          <alter>1</alter>
          <octave>5</octave>
        </pitch>
        <duration>512</duration>
        <tie type="start"/>
        <voice>1</voice>
        <type>eighth</type>
        <staff>1</staff>
        <notations>
          <tied type="start"/>
        </notations>
      </note>
    </measure>
    <!--=======================================================-->
    <measure number="12">
      <note dynamics="105">
        <pitch>
          <step>F</step>
          <alter>1</alter>
          <octave>5</octave>
        </pitch>
        <duration>1024</duration>
        <tie type="stop"/>
        <voice>1</voice>
        <type>quarter</type>
        <staff>1</staff>
        <notations>
          <tied type="stop"/>
        </notations>
      </note>
      <note dynamics="103">
        <pitch>
          <step>C</step>
          <alter>1</alter>
          <octave>5</octave>
        </pitch>
        <duration>512</duration>
        <voice>1</voice>
        <type>eighth</type>
        <staff>1</staff>
        <beam number="1">begin</beam>
      </note>
      <note dynamics="100">
        <pitch>
          <step>F</step>
          <alter>1</alter>
          <octave>5</octave>
        </pitch>
        <duration>512</duration>
        <tie type="start"/>
        <voice>1</voice>
        <type>eighth</type>
        <staff>1</staff>
        <beam number="1">end</beam>
        <notations>
          <tied type="start"/>
        </notations>
      </note>
      <note dynamics="100">
        <pitch>
          <step>F</step>
          <alter>1</alter>
          <octave>5</octave>
        </pitch>
        <duration>1536</duration>
        <tie type="stop"/>
        <voice>1</voice>
        <type>quarter</type>
        <dot/>
        <staff>1</staff>
        <notations>
          <tied type="stop"/>
        </notations>
      </note>
      <note>
        <grace slash="yes"/>
        <pitch>
          <step>F</step>
          <alter>1</alter>
          <octave>5</octave>
        </pitch>
        <voice>1</voice>
        <type>eighth</type>
        <staff>1</staff>
        <notations>
          <slur type="start"/>
        </notations>
      </note>
      <note dynamics="102">
        <pitch>
          <step>E</step>
          <octave>5</octave>
        </pitch>
        <duration>512</duration>
        <tie type="start"/>
        <voice>1</voice>
        <type>eighth</type>
        <staff>1</staff>
        <notations>
          <tied type="start"/>
          <slur type="stop"/>
        </notations>
      </note>
    </measure>
    <!--=======================================================-->
    <measure number="13">
      <note dynamics="102">
        <pitch>
          <step>E</step>
          <octave>5</octave>
        </pitch>
        <duration>1024</duration>
        <tie type="stop"/>
        <voice>1</voice>
        <type>quarter</type>
        <staff>1</staff>
        <notations>
          <tied type="stop"/>
        </notations>
      </note>
      <note dynamics="110">
        <pitch>
          <step>C</step>
          <alter>1</alter>
          <octave>5</octave>
        </pitch>
        <duration>3072</duration>
        <voice>1</voice>
        <type>half</type>
        <dot/>
        <staff>1</staff>
      </note>
    </measure>
    <!--=======================================================-->
    <measure number="14">
      <note dynamics="100">
        <pitch>
          <step>D</step>
          <alter>1</alter>
          <octave>5</octave>
        </pitch>
        <duration>512</duration>
        <voice>1</voice>
        <type>eighth</type>
        <accidental>sharp</accidental>
        <staff>1</staff>
        <beam number="1">begin</beam>
      </note>
      <note dynamics="108">
        <pitch>
          <step>C</step>
          <alter>1</alter>
          <octave>5</octave>
        </pitch>
        <duration>512</duration>
        <voice>1</voice>
        <type>eighth</type>
        <staff>1</staff>
        <beam number="1">end</beam>
      </note>
      <note dynamics="94">
        <pitch>
          <step>C</step>
          <alter>1</alter>
          <octave>5</octave>
        </pitch>
        <duration>512</duration>
        <voice>1</voice>
        <type>eighth</type>
        <staff>1</staff>
        <beam number="1">begin</beam>
      </note>
      <note dynamics="108">
        <pitch>
          <step>C</step>
          <alter>1</alter>
          <octave>5</octave>
        </pitch>
        <duration>512</duration>
        <voice>1</voice>
        <type>eighth</type>
        <staff>1</staff>
        <beam number="1">end</beam>
      </note>
      <note dynamics="98">
        <pitch>
          <step>D</step>
          <alter>1</alter>
          <octave>5</octave>
        </pitch>
        <duration>512</duration>
        <voice>1</voice>
        <type>eighth</type>
        <staff>1</staff>
      </note>
      <note dynamics="107">
        <pitch>
          <step>C</step>
          <alter>1</alter>
          <octave>5</octave>
        </pitch>
        <duration>1536</duration>
        <tie type="start"/>
        <voice>1</voice>
        <type>quarter</type>
        <dot/>
        <staff>1</staff>
        <notations>
          <tied type="start"/>
        </notations>
      </note>
    </measure>
    <!--=======================================================-->
    <measure number="15">
      <note dynamics="107">
        <pitch>
          <step>C</step>
          <alter>1</alter>
          <octave>5</octave>
        </pitch>
        <duration>512</duration>
        <tie type="stop"/>
        <voice>1</voice>
        <type>eighth</type>
        <staff>1</staff>
        <beam number="1">begin</beam>
        <notations>
          <tied type="stop"/>
        </notations>
      </note>
      <note dynamics="98">
        <pitch>
          <step>B</step>
          <octave>4</octave>
        </pitch>
        <duration>384</duration>
        <voice>1</voice>
        <type>16th</type>
        <dot/>
        <staff>1</staff>
        <beam number="2">continue</beam>
      </note>
      <note dynamics="98">
        <pitch>
          <step>A</step>
          <octave>4</octave>
        </pitch>
        <duration>128</duration>
        <tie type="start"/>
        <voice>1</voice>
        <type>32nd</type>
        <staff>1</staff>
        <beam number="3">end</beam>
        <notations>
          <tied type="start"/>
        </notations>
      </note>
      <note dynamics="98">
        <pitch>
          <step>A</step>
          <octave>4</octave>
        </pitch>
        <duration>1024</duration>
        <tie type="stop"/>
        <voice>1</voice>
        <type>quarter</type>
        <staff>1</staff>
        <notations>
          <tied type="stop"/>
        </notations>
      </note>
      <note dynamics="92">
        <pitch>
          <step>B</step>
          <octave>4</octave>
        </pitch>
        <duration>2048</duration>
        <tie type="start"/>
        <voice>1</voice>
        <type>half</type>
        <staff>1</staff>
        <notations>
          <tied type="start"/>
        </notations>
      </note>
    </measure>
    <!--=======================================================-->
    <measure number="16">
      <note dynamics="92">
        <pitch>
          <step>B</step>
          <octave>4</octave>
        </pitch>
        <duration>512</duration>
        <tie type="stop"/>
        <voice>1</voice>
        <type>eighth</type>
        <staff>1</staff>
        <notations>
          <tied type="stop"/>
        </notations>
      </note>
      <note dynamics="90">
        <pitch>
          <step>B</step>
          <octave>4</octave>
        </pitch>
        <duration>1536</duration>
        <tie type="start"/>
        <voice>1</voice>
        <type>quarter</type>
        <dot/>
        <staff>1</staff>
        <notations>
          <tied type="start"/>
        </notations>
      </note>
      <note dynamics="90">
        <pitch>
          <step>B</step>
          <octave>4</octave>
        </pitch>
        <duration>512</duration>
        <tie type="stop"/>
        <voice>1</voice>
        <type>eighth</type>
        <staff>1</staff>
        <notations>
          <tied type="stop"/>
        </notations>
      </note>
      <note>
        <rest/>
        <duration>512</duration>
        <voice>1</voice>
        <type>eighth</type>
        <staff>1</staff>
      </note>
      <note>
        <rest/>
        <duration>1024</duration>
        <voice>1</voice>
        <type>quarter</type>
        <staff>1</staff>
      </note>
    </measure>
  </part>
</score-partwise>
