<?xml version="1.0" encoding="UTF-8" standalone="no"?>
<!DOCTYPE score-partwise PUBLIC "-//Recordare//DTD MusicXML 3.1 Partwise//EN" "http://www.musicxml.org/dtds/partwise.dtd">
<score-partwise version="3.1">
  <movement-title>snippet 2</movement-title>
  <identification>
    <creator type="composer"></creator>
    <encoding>
      <software>ScoreCloud Studio 4.5.1 (App Store)</software>
    </encoding>
  </identification>
  <part-list>
    <score-part id="P0">
      <part-name></part-name>
    </score-part>
  </part-list>
  <!--=========================================================-->
  <part id="P0">
    <!--=======================================================-->
    <measure number="1">
      <attributes>
        <divisions>1024</divisions>
        <key>
          <fifths>3</fifths>
        </key>
        <time>
          <beats>4</beats>
          <beat-type>4</beat-type>
        </time>
        <staves>1</staves>
        <clef number="1">
          <sign>G</sign>
          <line>2</line>
        </clef>
      </attributes>
      <direction directive="yes" placement="above">
        <direction-type>
          <metronome>
            <beat-unit>quarter</beat-unit>
            <per-minute>175</per-minute>
          </metronome>
        </direction-type>
        <sound tempo="175"/>
      </direction>
      <harmony>
        <root>
          <root-step text="F">F</root-step>
          <root-alter>1</root-alter>
        </root>
        <kind>major</kind>
      </harmony>
      <note dynamics="110">
        <pitch>
          <step>C</step>
          <alter>1</alter>
          <octave>5</octave>
        </pitch>
        <duration>2048</duration>
        <voice>1</voice>
        <type>half</type>
        <staff>1</staff>
      </note>
      <harmony>
        <root>
          <root-step text="E">E</root-step>
        </root>
        <kind>major</kind>
      </harmony>
      <note dynamics="107">
        <pitch>
          <step>E</step>
          <octave>5</octave>
        </pitch>
        <duration>1024</duration>
        <voice>1</voice>
        <type>quarter</type>
        <staff>1</staff>
      </note>
      <note dynamics="103">
        <pitch>
          <step>E</step>
          <octave>5</octave>
        </pitch>
        <duration>1024</duration>
        <tie type="start"/>
        <voice>1</voice>
        <type>quarter</type>
        <staff>1</staff>
        <notations>
          <tied type="start"/>
        </notations>
      </note>
    </measure>
    <!--=======================================================-->
    <measure number="2">
      <harmony>
        <root>
          <root-step text="C">C</root-step>
          <root-alter>1</root-alter>
        </root>
        <kind>minor</kind>
      </harmony>
      <note dynamics="103">
        <pitch>
          <step>E</step>
          <octave>5</octave>
        </pitch>
        <duration>1024</duration>
        <tie type="stop"/>
        <voice>1</voice>
        <type>quarter</type>
        <staff>1</staff>
        <notations>
          <tied type="stop"/>
        </notations>
      </note>
      <note dynamics="97">
        <pitch>
          <step>C</step>
          <alter>1</alter>
          <octave>5</octave>
        </pitch>
        <duration>3072</duration>
        <voice>1</voice>
        <type>half</type>
        <dot/>
        <staff>1</staff>
      </note>
    </measure>
    <!--=======================================================-->
    <measure number="3">
      <harmony>
        <root>
          <root-step text="F">F</root-step>
          <root-alter>1</root-alter>
        </root>
        <kind>major</kind>
      </harmony>
      <note dynamics="102">
        <pitch>
          <step>F</step>
          <alter>1</alter>
          <octave>5</octave>
        </pitch>
        <duration>2048</duration>
        <voice>1</voice>
        <type>half</type>
        <staff>1</staff>
      </note>
      <harmony>
        <root>
          <root-step text="E">E</root-step>
        </root>
        <kind>major</kind>
      </harmony>
      <note dynamics="94">
        <pitch>
          <step>E</step>
          <octave>5</octave>
        </pitch>
        <duration>1024</duration>
        <voice>1</voice>
        <type>quarter</type>
        <staff>1</staff>
      </note>
      <note dynamics="95">
        <pitch>
          <step>E</step>
          <octave>5</octave>
        </pitch>
        <duration>1024</duration>
        <tie type="start"/>
        <voice>1</voice>
        <type>quarter</type>
        <staff>1</staff>
        <notations>
          <tied type="start"/>
        </notations>
      </note>
    </measure>
    <!--=======================================================-->
    <measure number="4">
      <harmony>
        <root>
          <root-step text="C">C</root-step>
          <root-alter>1</root-alter>
        </root>
        <kind>minor</kind>
      </harmony>
      <note dynamics="95">
        <pitch>
          <step>E</step>
          <octave>5</octave>
        </pitch>
        <duration>1024</duration>
        <tie type="stop"/>
        <voice>1</voice>
        <type>quarter</type>
        <staff>1</staff>
        <notations>
          <tied type="stop"/>
        </notations>
      </note>
      <note dynamics="95">
        <pitch>
          <step>C</step>
          <alter>1</alter>
          <octave>5</octave>
        </pitch>
        <duration>3072</duration>
        <voice>1</voice>
        <type>half</type>
        <dot/>
        <staff>1</staff>
      </note>
    </measure>
    <!--=======================================================-->
    <measure number="5">
      <harmony>
        <root>
          <root-step text="F">F</root-step>
          <root-alter>1</root-alter>
        </root>
        <kind>major</kind>
      </harmony>
      <note dynamics="97">
        <pitch>
          <step>C</step>
          <alter>1</alter>
          <octave>5</octave>
        </pitch>
        <duration>2048</duration>
        <voice>1</voice>
        <type>half</type>
        <staff>1</staff>
      </note>
      <harmony>
        <root>
          <root-step text="E">E</root-step>
        </root>
        <kind>major</kind>
      </harmony>
      <note dynamics="90">
        <pitch>
          <step>E</step>
          <octave>5</octave>
        </pitch>
        <duration>1024</duration>
        <voice>1</voice>
        <type>quarter</type>
        <staff>1</staff>
      </note>
      <note dynamics="95">
        <pitch>
          <step>E</step>
          <octave>5</octave>
        </pitch>
        <duration>1024</duration>
        <tie type="start"/>
        <voice>1</voice>
        <type>quarter</type>
        <staff>1</staff>
        <notations>
          <tied type="start"/>
        </notations>
      </note>
    </measure>
    <!--=======================================================-->
    <measure number="6">
      <harmony>
        <root>
          <root-step text="C">C</root-step>
          <root-alter>1</root-alter>
        </root>
        <kind>minor</kind>
      </harmony>
      <note dynamics="95">
        <pitch>
          <step>E</step>
          <octave>5</octave>
        </pitch>
        <duration>1024</duration>
        <tie type="stop"/>
        <voice>1</voice>
        <type>quarter</type>
        <staff>1</staff>
        <notations>
          <tied type="stop"/>
        </notations>
      </note>
      <note dynamics="97">
        <pitch>
          <step>C</step>
          <alter>1</alter>
          <octave>5</octave>
        </pitch>
        <duration>3072</duration>
        <voice>1</voice>
        <type>half</type>
        <dot/>
        <staff>1</staff>
      </note>
    </measure>
    <!--=======================================================-->
    <measure number="7">
      <harmony>
        <root>
          <root-step text="F">F</root-step>
          <root-alter>1</root-alter>
        </root>
        <kind>major</kind>
      </harmony>
      <note dynamics="103">
        <pitch>
          <step>F</step>
          <alter>1</alter>
          <octave>5</octave>
        </pitch>
        <duration>2048</duration>
        <voice>1</voice>
        <type>half</type>
        <staff>1</staff>
      </note>
      <harmony>
        <root>
          <root-step text="C">C</root-step>
          <root-alter>1</root-alter>
        </root>
        <kind>minor</kind>
      </harmony>
      <note dynamics="95">
        <pitch>
          <step>E</step>
          <octave>5</octave>
        </pitch>
        <duration>1024</duration>
        <voice>1</voice>
        <type>quarter</type>
        <staff>1</staff>
      </note>
      <note dynamics="95">
        <pitch>
          <step>C</step>
          <alter>1</alter>
          <octave>5</octave>
        </pitch>
        <duration>1024</duration>
        <tie type="start"/>
        <voice>1</voice>
        <type>quarter</type>
        <staff>1</staff>
        <notations>
          <tied type="start"/>
        </notations>
      </note>
    </measure>
    <!--=======================================================-->
    <measure number="8">
      <harmony>
        <root>
          <root-step text="F">F</root-step>
          <root-alter>1</root-alter>
        </root>
        <kind>major</kind>
      </harmony>
      <note dynamics="95">
        <pitch>
          <step>C</step>
          <alter>1</alter>
          <octave>5</octave>
        </pitch>
        <duration>3072</duration>
        <tie type="stop"/>
        <voice>1</voice>
        <type>half</type>
        <dot/>
        <staff>1</staff>
        <notations>
          <tied type="stop"/>
        </notations>
      </note>
      <note dynamics="95">
        <pitch>
          <step>C</step>
          <alter>1</alter>
          <octave>5</octave>
        </pitch>
        <duration>1024</duration>
        <tie type="start"/>
        <voice>1</voice>
        <type>quarter</type>
        <staff>1</staff>
        <notations>
          <tied type="start"/>
        </notations>
      </note>
    </measure>
    <!--=======================================================-->
    <measure number="9">
      <harmony>
        <root>
          <root-step text="B">B</root-step>
        </root>
        <kind>major</kind>
      </harmony>
      <note dynamics="95">
        <pitch>
          <step>C</step>
          <alter>1</alter>
          <octave>5</octave>
        </pitch>
        <duration>512</duration>
        <tie type="stop"/>
        <voice>1</voice>
        <type>eighth</type>
        <staff>1</staff>
        <notations>
          <tied type="stop"/>
        </notations>
      </note>
      <note dynamics="85">
        <pitch>
          <step>B</step>
          <octave>4</octave>
        </pitch>
        <duration>1536</duration>
        <voice>1</voice>
        <type>quarter</type>
        <dot/>
        <staff>1</staff>
      </note>
      <note dynamics="85">
        <pitch>
          <step>A</step>
          <octave>4</octave>
        </pitch>
        <duration>1024</duration>
        <voice>1</voice>
        <type>quarter</type>
        <staff>1</staff>
      </note>
      <note dynamics="89">
        <pitch>
          <step>B</step>
          <octave>4</octave>
        </pitch>
        <duration>1024</duration>
        <tie type="start"/>
        <voice>1</voice>
        <type>quarter</type>
        <staff>1</staff>
        <notations>
          <tied type="start"/>
        </notations>
      </note>
    </measure>
    <!--=======================================================-->
    <measure number="10">
      <note dynamics="89">
        <pitch>
          <step>B</step>
          <octave>4</octave>
        </pitch>
        <duration>1024</duration>
        <tie type="stop"/>
        <voice>1</voice>
        <type>quarter</type>
        <staff>1</staff>
        <notations>
          <tied type="stop"/>
        </notations>
      </note>
      <note dynamics="89">
        <pitch>
          <step>A</step>
          <octave>4</octave>
        </pitch>
        <duration>1024</duration>
        <voice>1</voice>
        <type>quarter</type>
        <staff>1</staff>
      </note>
      <note dynamics="89">
        <pitch>
          <step>A</step>
          <octave>4</octave>
        </pitch>
        <duration>2048</duration>
        <tie type="start"/>
        <voice>1</voice>
        <type>half</type>
        <staff>1</staff>
        <notations>
          <tied type="start"/>
        </notations>
      </note>
    </measure>
    <!--=======================================================-->
    <measure number="11">
      <harmony>
        <root>
          <root-step text="E">E</root-step>
        </root>
        <kind>major</kind>
      </harmony>
      <note dynamics="89">
        <pitch>
          <step>A</step>
          <octave>4</octave>
        </pitch>
        <duration>4096</duration>
        <tie type="stop"/>
        <tie type="start"/>
        <voice>1</voice>
        <type>whole</type>
        <staff>1</staff>
        <notations>
          <tied type="stop"/>
          <tied type="start"/>
        </notations>
      </note>
    </measure>
    <!--=======================================================-->
    <measure number="12">
      <note dynamics="89">
        <pitch>
          <step>A</step>
          <octave>4</octave>
        </pitch>
        <duration>1024</duration>
        <tie type="stop"/>
        <voice>1</voice>
        <type>quarter</type>
        <staff>1</staff>
        <notations>
          <tied type="stop"/>
        </notations>
      </note>
      <note dynamics="102">
        <pitch>
          <step>C</step>
          <alter>1</alter>
          <octave>5</octave>
        </pitch>
        <duration>1024</duration>
        <voice>1</voice>
        <type>quarter</type>
        <staff>1</staff>
      </note>
      <note dynamics="92">
        <pitch>
          <step>B</step>
          <octave>4</octave>
        </pitch>
        <duration>1024</duration>
        <voice>1</voice>
        <type>quarter</type>
        <staff>1</staff>
      </note>
      <note dynamics="89">
        <pitch>
          <step>A</step>
          <octave>4</octave>
        </pitch>
        <duration>1024</duration>
        <voice>1</voice>
        <type>quarter</type>
        <staff>1</staff>
      </note>
    </measure>
    <!--=======================================================-->
    <measure number="13">
      <note dynamics="92">
        <pitch>
          <step>B</step>
          <octave>4</octave>
        </pitch>
        <duration>2048</duration>
        <voice>1</voice>
        <type>half</type>
        <staff>1</staff>
      </note>
      <note dynamics="89">
        <pitch>
          <step>A</step>
          <octave>4</octave>
        </pitch>
        <duration>1024</duration>
        <voice>1</voice>
        <type>quarter</type>
        <staff>1</staff>
      </note>
      <note dynamics="89">
        <pitch>
          <step>A</step>
          <octave>4</octave>
        </pitch>
        <duration>1024</duration>
        <tie type="start"/>
        <voice>1</voice>
        <type>quarter</type>
        <staff>1</staff>
        <notations>
          <tied type="start"/>
        </notations>
      </note>
    </measure>
    <!--=======================================================-->
    <measure number="14">
      <harmony>
        <root>
          <root-step text="E">E</root-step>
        </root>
        <kind>major</kind>
      </harmony>
      <note dynamics="89">
        <pitch>
          <step>A</step>
          <octave>4</octave>
        </pitch>
        <duration>4096</duration>
        <tie type="stop"/>
        <tie type="start"/>
        <voice>1</voice>
        <type>whole</type>
        <staff>1</staff>
        <notations>
          <tied type="stop"/>
          <tied type="start"/>
        </notations>
      </note>
    </measure>
    <!--=======================================================-->
    <measure number="15">
      <note dynamics="89">
        <pitch>
          <step>A</step>
          <octave>4</octave>
        </pitch>
        <duration>1024</duration>
        <tie type="stop"/>
        <voice>1</voice>
        <type>quarter</type>
        <staff>1</staff>
        <notations>
          <tied type="stop"/>
        </notations>
      </note>
      <note>
        <rest/>
        <duration>1024</duration>
        <voice>1</voice>
        <type>quarter</type>
        <staff>1</staff>
      </note>
      <note>
        <rest/>
        <duration>2048</duration>
        <voice>1</voice>
        <type>half</type>
        <staff>1</staff>
      </note>
    </measure>
  </part>
</score-partwise>
